# xmcd
# Copyright (C) 1995-1998 Ti Kan
#
# Track frame offsets:
#       150
#       17987
#       29965
#
# Disc length: 632 seconds
#
# Revision: 0
# Processed by: cddbd v1.4PL0 Copyright (c) Steve Scherf et al.
# Submitted via: CD-Transfer v1.0
#
DISCID=25027603
DTITLE=Mrs. Jones - She's Around
DYEAR=2002
DGENRE=
TTITLE0=She's Around
TTITLE1=Why We Stay
TTITLE2=Guardian Angel
EXTD=
EXTT0=
EXTT1=
EXTT2=
PLAYORDER=
